# xmcd
#
# Track frame offsets:
#	150
#	17430
#	35288
#	53688
#	68544
#	85134
#	102999
#	121428
#	136774
#	153246
#	168715
#	185835
#	201945
#	218002
#	236141
#	256960
#	273902
#	291286
#	308162
#	324843
#
# Disc length: 4542 seconds
#
# Revision: 2
# Processed by: cddbd v1.5PL3 Copyright (c) Steve Scherf et al.
# Submitted via: audiograbber 1.83.01
#
DISCID=1511bc14
DTITLE=Various Artist - As 20 Sertanejas Mais Tocadas
DYEAR=2003
DGENRE=Country
TTITLE0=Zezé Di Camargo and Luciano - Pra mudar minha vida
TTITLE1=Bruno and Marrone - Vai dar namoro
TTITLE2=Luan and Leomar - Pra sempre vou te amar
TTITLE3=Dois a Um - Sinto falta desse amor
TTITLE4=Mattos and Mateus - Dona de mim
TTITLE5=Eric and Henrique - Feito tatuagem
TTITLE6=Rionegro and Solimoes - Lencol gelado
TTITLE7=Leonardo - Brincadeira tem hora
TTITLE8=Zeze Di Camargo and Luciano - Toneladas de paixao
TTITLE9=Edson and Hudson - Deixa eu te amar
TTITLE10=Mattos and Mateus - Ta legal
TTITLE11=Gian and Giovani - Me faz perder o medo
TTITLE12=Leonardo - Mulher bandida
TTITLE13=Zeze Di Camargo and Luciano - Bebedeira
TTITLE14=Guilherme and Santiago - Tempestade de paixao
TTITLE15=Eduardo Costa - Acabou o amor
TTITLE16=Ronaldo Viola and Joao Carvalho - Desatino
TTITLE17=Daniel e Part.Esp. Jose Camilo - Mundo Velho
TTITLE18=Teodoro and Sampaio - Vendavais
TTITLE19=Ronaldo Viola and Praiano - Jeitao Caipira
EXTD=
EXTT0=
EXTT1=
EXTT2=
EXTT3=
EXTT4=
EXTT5=
EXTT6=
EXTT7=
EXTT8=
EXTT9=
EXTT10=
EXTT11=
EXTT12=
EXTT13=
EXTT14=
EXTT15=
EXTT16=
EXTT17=
EXTT18=
EXTT19=
PLAYORDER=
